<?xml version="1.0" encoding="iso-8859-1"?>
<!-- Uploaded to: SVG Repo, www.svgrepo.com, Generator: SVG Repo Mixer Tools -->
<svg height="800px" width="800px" version="1.1" id="Capa_1" xmlns="http://www.w3.org/2000/svg" xmlns:xlink="http://www.w3.org/1999/xlink" 
	 viewBox="0 0 48.666 48.666" xml:space="preserve">
<g>
	<g>
		<path style="fill:#010002;" d="M6.671,9.443c0.942,0.575,1.981,0.04,2.356-0.999c0.251-0.692,0.538-1.354,0.86-1.981
			c1.191-2.314,2.866-4.184,4.979-5.557c0.087-0.057,0.174-0.111,0.261-0.165c0.145-0.09-0.618-0.3-1.715-0.437
			C8.157-0.349,5.671,0.118,3.974,3.283C2.535,5.969,4.455,8.089,6.671,9.443z"/>
		<path style="fill:#010002;" d="M44.728,3.398c-1.631-3.187-4.097-3.71-9.33-3.167c-1.1,0.114-1.209,0.69-0.361,1.398
			c1.811,1.513,3.443,3.698,4.497,6.849c0.35,1.048,1.381,1.604,2.337,1.051C44.129,8.22,46.124,6.128,44.728,3.398z"/>
		<path style="fill:#010002;" d="M39.008,16.446C38.728-1.656,24.583,0.042,24.201,0.042S9.543-0.778,9.411,16.446
			c0.137,4.745-3.981,9.382-4.872,12.741c-2.075,7.824-1.494,19.332,19.672,19.479c24.792,0.028,19.474-16.728,18.024-19.743
			C39.073,22.334,39.231,19.376,39.008,16.446z M18.099,16.529c-0.833,0-1.511-0.678-1.511-1.511s0.678-1.511,1.511-1.511
			s1.511,0.678,1.511,1.511C19.609,15.851,18.932,16.529,18.099,16.529z M27.804,32.327c-0.095,0.414-0.744,0.987-1.477,1.512
			c-0.898,0.644-1.691,1.96-1.691,3.064v2.057c0,1.104,0.198,2.113,0.469,2.183c0.269,0.069,0.529,0.834,0.535,1.785
			c0.008,0.952-0.338,1.726-0.761,1.725c-0.424-0.001-0.768-0.741-0.768-1.653s-0.107-1.651-0.239-1.651S23.633,42.088,23.633,43
			s-0.335,1.652-0.748,1.653c-0.414,0.001-0.749-0.772-0.749-1.727s0.213-1.729,0.463-1.799c0.25-0.068,0.436-1.068,0.436-2.174
			v-2.074c0-1.104-0.819-2.369-1.761-2.947c-0.215-0.131-0.401-0.254-0.564-0.371c-0.9-0.64-0.264-2.07,0.831-2.217
			c1.133-0.151,2.604-0.189,3.834-0.084c1.101,0.094,2.051,0.406,2.157,0.463c0.064,0.032,0.121,0.078,0.169,0.135
			C27.808,31.984,27.844,32.152,27.804,32.327z M29.819,16.529c-0.832,0-1.51-0.678-1.51-1.511s0.678-1.511,1.51-1.511
			c0.834,0,1.512,0.678,1.512,1.511S30.653,16.529,29.819,16.529z"/>
	</g>
</g>
</svg>